# xmcd
#
# Track frame offsets:
#	150
#	15450
#	34878
#	53557
#	69681
#	82234
#	99542
#	120316
#	133153
#	152224
#	179224
#
# Disc length: 2568 seconds
#
# Revision: 0
# Processed by: cddbd v1.4PL0 Copyright (c) Steve Scherf et al.
# Submitted via: EasyCDDAExtractor 4.6.9.1
#
DISCID=980a060b
DTITLE=Vince Gill - Breath of Heaven
DYEAR=1998
DGENRE=Country
TTITLE0=Winter Wonderland
TTITLE1=The Christmas Song
TTITLE2=O Little Town Of Bethlehem
TTITLE3=Silver Bells
TTITLE4=It's The Most Wonderful Time Of The Year
TTITLE5=Blue Christmas
TTITLE6=O Holy Night
TTITLE7=Let It Snow, Let It Snow, Let It Snow
TTITLE8=A Cradle In Bethlehem
TTITLE9=Breath Of Heaven (Mary's Song)
TTITLE10=O Come All Ye Faithful
EXTD=
EXTT0=
EXTT1=
EXTT2=
EXTT3=
EXTT4=
EXTT5=
EXTT6=
EXTT7=
EXTT8=
EXTT9=
EXTT10=
PLAYORDER=
